<svg xmlns="http://www.w3.org/2000/svg" viewBox="0 0 64 64" width="64" height="64">
  <rect width="64" height="64" rx="14" fill="#111827"/>
  <g transform="translate(10, 12) scale(0.156)">
    <path d="M63.45,249.56H0V89.52C0,40.16,32.93,0,85.7,0c4.14,0,8.23.25,12.27.75,40.79,4.99,73.08,34.79,80.26,72.68l11.65,52.86c1,4.52,7.53,4.22,8.11-.37l15.3-121.86,69.37.15-37.75,245.41-80.68.81-44.81-177.17c-2.47-9.75-9.13-18.25-18.64-22.87-5.12-2.49-10.88-3.87-16.86-3.87-20.24,0-26.7,15.4-26.7,34.33l6.23,168.7Z" fill="white"/>
  </g>
</svg>
